<svg xmlns="http://www.w3.org/2000/svg" viewBox="0 0 16 16"><title>icon_info-hover</title><circle cx="8" cy="8" r="7" style="fill:none;stroke:#404e59;stroke-miterlimit:10"/><path d="M8.61,9.73H7.37c0-.18,0-.29,0-.33a2.19,2.19,0,0,1,.2-1,3,3,0,0,1,.8-.88,6,6,0,0,0,.72-.64.85.85,0,0,0,.18-.53.89.89,0,0,0-.32-.69,1.24,1.24,0,0,0-.86-.29,1.31,1.31,0,0,0-.87.3,1.58,1.58,0,0,0-.48.91L5.46,6.44A2.09,2.09,0,0,1,6.21,5,2.64,2.64,0,0,1,8,4.34,2.74,2.74,0,0,1,9.9,5a1.87,1.87,0,0,1,.7,1.44,1.58,1.58,0,0,1-.26.86,5.63,5.63,0,0,1-1.1,1.1,2.1,2.1,0,0,0-.54.58A1.94,1.94,0,0,0,8.61,9.73ZM7.37,11.57V10.2H8.74v1.37Z" style="fill:#404e59"/></svg>